<?xml version="1.0" encoding="utf-8"?>
<svg version="1.1" id="Layer_1_1_" x="0px" y="0px" viewBox="0 0 64 64" style="enable-background:new 0 0 64 64;" width="512" height="512" xmlns="http://www.w3.org/2000/svg">
  <g>
    <path d="M 63 53 L 63 3 L 1 3 L 1 53 L 19.822 53 L 20.602 51 L 3 51 L 3 13 L 61 13 L 61 51 L 41.738 51 L 41.96 53 L 63 53 Z M 3 11 L 3 5 L 61 5 L 61 11 L 3 11 Z"/>
    <g>
      <rect x="5" y="7" width="2" height="2"/>
      <rect x="9" y="7" width="2" height="2"/>
      <rect x="13" y="7" width="2" height="2"/>
    </g>
    <g>
      <rect x="5" y="26" style="fill: rgb(245, 217, 35);" width="10" height="16"/>
      <rect x="5" y="25" width="10" height="2"/>
      <rect x="5" y="29" width="10" height="2"/>
      <rect x="5" y="33" width="10" height="2"/>
      <rect x="5" y="37" width="10" height="2"/>
      <rect x="5" y="41" width="10" height="2"/>
    </g>
    <g>
      <rect x="49" y="26" style="fill: rgb(108, 232, 78);" width="10" height="16"/>
      <rect x="49" y="25" width="10" height="2"/>
      <rect x="49" y="29" width="10" height="2"/>
      <rect x="49" y="33" width="10" height="2"/>
      <rect x="49" y="37" width="10" height="2"/>
      <rect x="49" y="41" width="10" height="2"/>
    </g>
    <g transform="matrix(0.999769, -0.021479, 0.021479, 0.999769, 1.050948, -1.405638)">
      <path d="M 16.537 19.572 L 22.697 30.41 C 23.124 30.332 20.673 31.725 20.958 31.397 L 15.342 21.515 L 11.089 21.438 C 10.939 21.845 10.708 22.227 10.377 22.549 C 9.19 23.701 7.286 23.673 6.134 22.486 C 4.983 21.299 5.011 19.396 6.198 18.244 C 7.385 17.092 9.288 17.12 10.44 18.307 C 10.762 18.638 10.981 19.027 11.12 19.439 L 16.511 19.537 L 16.514 19.585 L 16.537 19.572 Z M 8.984 21.114 C 9.379 20.73 9.389 20.095 9.005 19.7 C 8.621 19.305 7.986 19.295 7.591 19.679 C 7.195 20.063 7.186 20.698 7.57 21.093 C 7.953 21.488 8.588 21.498 8.984 21.114 Z"/>
    </g>
    <g transform="matrix(-0.999769, -0.021479, -0.021479, 0.999769, 61.966908, -1.070051)">
      <path d="M 11.089 21.438 C 10.939 21.845 10.708 22.227 10.377 22.549 C 9.19 23.701 7.286 23.673 6.134 22.486 C 4.983 21.299 5.011 19.396 6.198 18.244 C 7.385 17.092 9.288 17.12 10.44 18.307 C 10.762 18.638 10.981 19.027 11.12 19.439 L 18.274 19.575 L 18.264 19.592 L 18.3 19.572 L 24.46 30.41 C 24.887 30.332 22.436 31.725 22.721 31.397 L 17.124 21.549 L 11.089 21.438 Z M 8.984 21.114 C 9.379 20.73 9.389 20.095 9.005 19.7 C 8.621 19.305 7.986 19.295 7.591 19.679 C 7.195 20.063 7.186 20.698 7.57 21.093 C 7.953 21.488 8.588 21.498 8.984 21.114 Z"/>
    </g>
    <g transform="matrix(0.999769, 0.021479, 0.021479, -0.999769, -0.277386, 78.785439)">
      <path d="M 18.114 19.579 L 23.289 32.584 C 23.723 32.578 20.992 33.39 21.326 33.113 L 16.843 21.544 L 11.089 21.438 C 10.939 21.845 10.708 22.227 10.377 22.549 C 9.19 23.701 7.286 23.673 6.134 22.486 C 4.983 21.299 5.011 19.396 6.198 18.244 C 7.385 17.092 9.288 17.12 10.44 18.307 C 10.762 18.638 10.981 19.027 11.12 19.439 L 18.116 19.571 L 18.112 19.579 Z M 8.984 21.114 C 9.379 20.73 9.389 20.095 9.005 19.7 C 8.621 19.305 7.986 19.295 7.591 19.679 C 7.195 20.063 7.186 20.698 7.57 21.093 C 7.953 21.488 8.588 21.498 8.984 21.114 Z"/>
    </g>
    <g transform="matrix(1, 0, 0, 1, -1.11077, -2.776926)">
      <path d="M 43.252 34.444 C 43.165 34.444 42.847 34.494 42.761 34.499 L 42.947 29.756 C 42.947 28.203 41.822 27.263 40.268 27.263 L 35.619 26.984 C 35.624 26.898 35.534 26.766 35.534 26.679 C 35.534 24.56 34.042 22.835 31.923 22.835 C 29.804 22.835 28.359 24.56 28.359 26.679 C 28.359 26.766 28.455 26.991 28.46 27.077 L 23.671 27.124 C 22.117 27.124 20.899 28.203 20.899 29.756 L 20.899 35.061 C 20.899 35.31 21.113 35.218 21.316 35.361 C 21.519 35.505 21.779 35.216 22.013 35.133 C 22.262 35.046 22.614 35.372 22.877 35.372 C 24.151 35.372 25.002 36.688 25.002 37.962 C 25.002 39.237 24.104 40.692 22.83 40.692 C 22.567 40.692 22.262 40.787 22.014 40.699 C 21.779 40.617 21.472 40.606 21.269 40.75 C 21.066 40.893 20.899 40.615 20.899 40.864 L 20.899 46.168 C 20.899 47.722 22.163 48.986 23.717 48.986 L 29.021 48.986 L 29.023 48.986 C 29.446 48.986 29.184 48.782 29.184 48.359 C 29.184 48.256 29.257 47.74 29.22 47.651 C 29.141 47.414 29.425 46.936 29.425 46.684 C 29.425 45.409 30.649 44.883 31.923 44.883 C 33.197 44.883 34.56 45.874 34.56 47.149 C 34.56 47.412 34.748 47.532 34.66 47.779 C 34.577 48.014 34.52 48.367 34.663 48.57 C 34.807 48.773 34.575 48.986 34.825 48.986 L 40.129 48.986 C 41.683 48.986 42.947 47.722 42.947 46.168 L 42.901 41.752 C 42.987 41.757 43.165 41.434 43.252 41.434 C 45.372 41.434 47.05 40.082 47.05 37.962 C 47.05 35.843 45.372 34.444 43.252 34.444 Z" style="fill: rgb(86, 175, 239);"/>
      <path d="M 43.56 34.09 C 43.47 34.09 43.381 34.093 43.292 34.099 L 43.292 29.581 C 43.292 27.976 41.986 26.669 40.38 26.669 L 35.862 26.669 C 35.868 26.58 35.871 26.491 35.871 26.401 C 35.871 24.211 34.089 22.429 31.899 22.429 C 29.709 22.429 27.927 24.211 27.927 26.401 C 27.927 26.491 27.93 26.58 27.936 26.669 L 23.418 26.669 C 21.812 26.669 20.506 27.976 20.506 29.581 L 20.506 35.064 C 20.506 35.321 20.631 35.562 20.841 35.71 C 21.051 35.859 21.319 35.896 21.561 35.81 C 21.818 35.72 22.086 35.674 22.358 35.674 C 23.675 35.674 24.746 36.745 24.746 38.062 C 24.746 39.38 23.675 40.451 22.358 40.451 C 22.086 40.451 21.818 40.405 21.562 40.314 C 21.319 40.229 21.051 40.266 20.841 40.415 C 20.631 40.563 20.506 40.804 20.506 41.061 L 20.506 46.543 C 20.506 48.149 21.812 49.455 23.418 49.455 L 28.9 49.455 L 28.902 49.455 C 29.339 49.455 29.693 49.101 29.693 48.663 C 29.693 48.557 29.672 48.456 29.634 48.364 C 29.552 48.119 29.51 47.864 29.51 47.604 C 29.51 46.286 30.582 45.215 31.899 45.215 C 33.216 45.215 34.288 46.286 34.288 47.604 C 34.288 47.876 34.242 48.144 34.151 48.399 C 34.065 48.642 34.103 48.911 34.251 49.121 C 34.4 49.331 34.64 49.455 34.898 49.455 L 40.38 49.455 C 41.986 49.455 43.292 48.149 43.292 46.543 L 43.292 42.026 C 43.381 42.032 43.47 42.035 43.56 42.035 C 45.751 42.035 47.532 40.253 47.532 38.062 C 47.532 35.872 45.751 34.09 43.56 34.09 Z M 43.56 40.451 C 43.288 40.451 43.02 40.405 42.764 40.314 C 42.522 40.229 42.253 40.266 42.043 40.415 C 41.833 40.563 41.708 40.804 41.708 41.061 L 41.708 46.543 C 41.708 47.276 41.113 47.872 40.38 47.872 L 35.862 47.872 C 35.868 47.783 35.871 47.693 35.871 47.603 C 35.871 45.413 34.089 43.631 31.899 43.631 C 29.709 43.631 27.927 45.413 27.927 47.603 C 27.927 47.693 27.93 47.783 27.936 47.872 L 23.418 47.872 C 22.685 47.872 22.09 47.276 22.09 46.543 L 22.09 42.026 C 22.179 42.032 22.268 42.035 22.358 42.035 C 24.548 42.035 26.33 40.253 26.33 38.062 C 26.33 35.872 24.548 34.09 22.358 34.09 C 22.268 34.09 22.179 34.093 22.09 34.099 L 22.09 29.581 C 22.09 28.849 22.685 28.253 23.418 28.253 L 28.9 28.253 C 29.157 28.253 29.399 28.128 29.547 27.918 C 29.695 27.708 29.732 27.439 29.647 27.197 C 29.556 26.941 29.51 26.674 29.51 26.401 C 29.51 25.084 30.582 24.013 31.899 24.013 C 33.216 24.013 34.288 25.084 34.288 26.401 C 34.288 26.674 34.242 26.941 34.151 27.197 C 34.065 27.439 34.103 27.708 34.251 27.918 C 34.4 28.128 34.64 28.253 34.897 28.253 L 40.38 28.253 C 41.113 28.253 41.708 28.849 41.708 29.581 L 41.708 35.064 C 41.708 35.321 41.833 35.562 42.043 35.71 C 42.253 35.859 42.522 35.896 42.764 35.81 C 43.02 35.72 43.288 35.674 43.56 35.674 C 44.877 35.674 45.949 36.745 45.949 38.062 C 45.949 39.38 44.877 40.451 43.56 40.451 Z M 43.56 40.451" style=""/>
    </g>
    <g transform="matrix(-0.999769, 0.021479, -0.021479, -0.999769, 62.97435, 78.644821)">
      <path d="M 18.839 19.594 L 24.014 32.599 C 24.448 32.593 21.717 33.405 22.051 33.128 L 17.568 21.559 L 11.814 21.453 C 11.664 21.86 11.433 22.242 11.102 22.564 C 9.915 23.716 8.011 23.688 6.859 22.501 C 5.708 21.314 5.736 19.411 6.923 18.259 C 8.11 17.107 10.013 17.135 11.165 18.322 C 11.487 18.653 11.706 19.042 11.845 19.454 L 18.841 19.586 L 18.837 19.594 Z M 9.709 21.129 C 10.104 20.745 10.114 20.11 9.73 19.715 C 9.346 19.32 8.711 19.31 8.316 19.694 C 7.92 20.078 7.911 20.713 8.295 21.108 C 8.678 21.503 9.313 21.513 9.709 21.129 Z"/>
    </g>
    <g transform="matrix(1.379208, 0, 0, 1, -43.350677, 24.149452)" style="">
      <rect x="49" y="26" style="fill: rgb(250, 103, 88);" width="10" height="8.163"/>
      <rect x="49" y="25" width="10" height="2"/>
      <rect x="49" y="29" width="10" height="2"/>
      <rect x="49" y="33" width="10" height="2"/>
    </g>
  </g>
</svg>